{"title":"Revolution.2012.S01E10.HDTV.x264-LOL [MyTV].mp4","uid":7864560,"size":279815908,"categoryP":"video","categoryS":"tv_shows","magnet":"?xt=urn:btih:d48a7d6a7dac66533ef8570f03357eade4a34a3a&amp;dn=Revolution.2012.S01E10.HDTV.x264-LOL+%5BMyTV%5D.mp4&amp;tr=udp%3A%2F%2Ftracker.openbittorrent.com%3A80&amp;tr=udp%3A%2F%2Fopen.demonii.com%3A1337&amp;tr=udp%3A%2F%2Ftracker.coppersurfer.tk%3A6969&amp;tr=udp%3A%2F%2Fexodus.desync.com%3A6969","seeders":0,"leechers":1,"uploader":"TorrentXXLS","files":1,"time":1354027456,"description":"Revolution.2012.S01E10.HDTV.x264-LOL [MyTV].mp4\n\nScreenshots:\n &lt;a href=&quot;\nhttp://imageshack.us/a/img507/8754/vlcsnap2012112714h38m49.png&quot; rel=&quot;nofollow&quot; target=&quot;_NEW&quot;&gt;\nhttp://imageshack.us/a/img507/8754/vlcsnap2012112714h38m49.png&lt;/a&gt;\n &lt;a href=&quot;\nhttp://imageshack.us/a/img687/2930/vlcsnap2012112714h38m56.png&quot; rel=&quot;nofollow&quot; target=&quot;_NEW&quot;&gt;\nhttp://imageshack.us/a/img687/2930/vlcsnap2012112714h38m56.png&lt;/a&gt;\n &lt;a href=&quot;\nhttp://imageshack.us/a/img26/4155/vlcsnap2012112714h39m03.png&quot; rel=&quot;nofollow&quot; target=&quot;_NEW&quot;&gt;\nhttp://imageshack.us/a/img26/4155/vlcsnap2012112714h39m03.png&lt;/a&gt;\n\nNFO:\n\nFormat : MPEG-4\nFormat profile : Base Media\nCodec ID : isom\nFile size : 267 MiB\nDuration : 42mn 14s\nOverall bit rate mode : Variable\nOverall bit rate : 883 Kbps\nEncoded date : UTC 2012-11-26 22:34:47\nTagged date : UTC 2012-11-26 22:34:47\n\nVideo\nID : 1\nFormat : AVC\nFormat/Info : Advanced Video Codec\nFormat profile : &lt;a class=&quot;__cf_email__&quot; href=&quot;/cdn-cgi/l/email-protection&quot; data-cfemail=&quot;763e1f111e363a455847&quot;&gt;[email&amp;#160;protected]&lt;/a&gt;&lt;script cf-hash='f9e31' type=&quot;text/javascript&quot;&gt;\n/* &lt;![CDATA[ */!function(){try{var t=&quot;currentScript&quot;in document?document.currentScript:function(){for(var t=document.getElementsByTagName(&quot;script&quot;),e=t.length;e--;)if(t[e].getAttribute(&quot;cf-hash&quot;))return t[e]}();if(t&amp;&amp;t.previousSibling){var e,r,n,i,c=t.previousSibling,a=c.getAttribute(&quot;data-cfemail&quot;);if(a){for(e=&quot;&quot;,r=parseInt(a.substr(0,2),16),n=2;a.length-n;n+=2)i=parseInt(a.substr(n,2),16)^r,e+=String.fromCharCode(i);e=document.createTextNode(e),c.parentNode.replaceChild(e,c)}}}catch(u){}}();/* ]]&gt; */&lt;/script&gt;\nFormat settings, CABAC : Yes\nFormat settings, ReFrames : 5 frames\nCodec ID : avc1\nCodec ID/Info : Advanced Video Coding\nDuration : 42mn 14s\nBit rate : 757 Kbps\nMaximum bit rate : 5 079 Kbps\nWidth : 720 pixels\nHeight : 404 pixels\nDisplay aspect ratio : 16:9\nFrame rate mode : Constant\nFrame rate : 23.976 fps\nColor space : YUV\nChroma subsampling : 4:2:0\nBit depth : 8 bits\nScan type : Progressive\nBits/(Pixel*Frame) : 0.108\nStream size : 229 MiB (86%)\nWriting library : x264 core 129 r2230 1cffe9f\nEncoding settings : cabac=1 / ref=5 / deblock=1:1:1 / analyse=0x3:0x133 / me=umh / subme=9 / psy=1 / psy_rd=1.00:0.00 / mixed_ref=1 / me_range=16 / chroma_me=1 / trellis=2 / 8x8dct=1 / cqm=0 / deadzone=21,11 / fast_pskip=1 / chroma_qp_offset=-2 / threads=18 / lookahead_threads=3 / sliced_threads=0 / nr=0 / decimate=1 / interlaced=0 / bluray_compat=0 / constrained_intra=0 / bframes=3 / b_pyramid=2 / b_adapt=2 / b_bias=0 / direct=3 / weightb=1 / open_gop=0 / weightp=2 / keyint=250 / keyint_min=23 / scenecut=40 / intra_refresh=0 / rc_lookahead=60 / rc=crf / mbtree=1 / crf=20.0 / qcomp=0.60 / qpmin=0 / qpmax=69 / qpstep=4 / ip_ratio=1.40 / aq=1:1.00\nEncoded date : UTC 2012-11-26 22:21:18\nTagged date : UTC 2012-11-26 22:34:48\nMatrix coefficients : BT.709\n\nAudio\nID : 2\nFormat : AAC\nFormat/Info : Advanced Audio Codec\nFormat profile : LC\nCodec ID : 40\nDuration : 42mn 14s\nBit rate mode : Variable\nBit rate : 123 Kbps\nMaximum bit rate : 159 Kbps\nChannel(s) : 2 channels\nChannel positions : Front: L R\nSampling rate : 48.0 KHz\nCompression mode : Lossy\nDelay relative to video : 83ms\nStream size : 37.0 MiB (14%)\nEncoded date : UTC 2012-11-26 22:34:48\nTagged date : UTC 2012-11-26 22:34","torrent":{"xt":"urn:btih:d48a7d6a7dac66533ef8570f03357eade4a34a3a","amp;dn":"Revolution.2012.S01E10.HDTV.x264-LOL+%5BMyTV%5D.mp4","amp;tr":["udp%3A%2F%2Ftracker.openbittorrent.com%3A80","udp%3A%2F%2Fopen.demonii.com%3A1337","udp%3A%2F%2Ftracker.coppersurfer.tk%3A6969","udp%3A%2F%2Fexodus.desync.com%3A6969"],"infoHash":"d48a7d6a7dac66533ef8570f03357eade4a34a3a","infoHashBuffer":{"type":"Buffer","data":[212,138,125,106,125,172,102,83,62,248,87,15,3,53,126,173,228,163,74,58]},"announce":[],"urlList":[]}}